<svg width="15" height="16" viewBox="0 0 15 16" fill="none" xmlns="http://www.w3.org/2000/svg">
<path d="M2.19676 13.3032C1.49928 12.6076 0.946158 11.7809 0.569167 10.8708C0.192176 9.96073 -0.00124976 8.9851 6.07612e-06 8C6.07612e-06 3.85775 3.35776 0.5 7.50001 0.5C11.6423 0.5 15 3.85775 15 8C15 12.1423 11.6423 15.5 7.50001 15.5H6.07612e-06L2.19676 13.3032ZM4.50001 8.75C4.50001 9.54565 4.81608 10.3087 5.37869 10.8713C5.94129 11.4339 6.70436 11.75 7.50001 11.75C8.29566 11.75 9.05872 11.4339 9.62133 10.8713C10.1839 10.3087 10.5 9.54565 10.5 8.75H4.50001Z" fill="#607B96"/>
</svg>
