<svg width="20" height="21" viewBox="0 0 20 21" fill="none" xmlns="http://www.w3.org/2000/svg">
<path d="M10 0.255005C4.5 0.255005 0 4.755 0 10.255C0 15.755 4.5 20.255 10 20.255C15.5 20.255 20 15.755 20 10.255C20 4.755 15.5 0.255005 10 0.255005ZM4.429 15.826C2.929 14.326 2.143 12.326 2.143 10.398L9.929 18.112C7.929 18.041 5.929 17.326 4.429 15.826ZM11.714 17.898L2.357 8.54101C3.143 5.04101 6.286 2.39801 10 2.39801C12.643 2.39801 14.929 3.684 16.357 5.612L15.286 6.54101C14.07 4.89801 12.143 3.82501 10 3.82501C7.214 3.82501 4.857 5.611 3.929 8.111L12.143 16.325C14.214 15.611 15.786 13.825 16.286 11.683H12.857V10.255H17.857C17.857 13.969 15.214 17.112 11.714 17.898Z" fill="#607B96"/>
</svg>
