<svg width="22" height="20" viewBox="0 0 22 20" fill="none" xmlns="http://www.w3.org/2000/svg">
<path d="M11 11.755C10.6022 11.755 10.2206 11.597 9.93934 11.3157C9.65804 11.0344 9.5 10.6528 9.5 10.255C9.5 9.85718 9.65804 9.47565 9.93934 9.19434C10.2206 8.91304 10.6022 8.755 11 8.755C11.3978 8.755 11.7794 8.91304 12.0607 9.19434C12.342 9.47565 12.5 9.85718 12.5 10.255C12.5 10.6528 12.342 11.0344 12.0607 11.3157C11.7794 11.597 11.3978 11.755 11 11.755ZM10.472 14.749C10.647 14.959 10.823 15.163 11 15.358C11.177 15.163 11.353 14.96 11.528 14.749C11.176 14.7565 10.824 14.7565 10.472 14.749ZM8.477 14.624C7.70906 14.5441 6.9462 14.4212 6.192 14.256C6.117 14.606 6.06 14.946 6.022 15.272C5.832 16.855 6.097 17.817 6.5 18.049C6.903 18.282 7.868 18.03 9.145 17.075C9.408 16.878 9.673 16.659 9.939 16.42C9.4185 15.8491 8.9304 15.2495 8.477 14.624ZM15.808 14.256C15.091 14.416 14.325 14.54 13.523 14.624C13.0696 15.2495 12.5815 15.8491 12.061 16.42C12.327 16.66 12.592 16.878 12.855 17.075C14.132 18.03 15.097 18.282 15.5 18.049C15.903 17.817 16.167 16.855 15.979 15.272C15.9377 14.9309 15.881 14.5919 15.809 14.256H15.808ZM17.258 13.869C17.835 16.508 17.532 18.609 16.25 19.349C14.968 20.089 12.997 19.301 11 17.482C9.003 19.301 7.032 20.088 5.75 19.348C4.468 18.608 4.165 16.508 4.741 13.868C2.167 13.049 0.5 11.735 0.5 10.255C0.5 8.775 2.167 7.462 4.741 6.641C4.165 4.002 4.468 1.901 5.75 1.161C7.032 0.421005 9.003 1.209 11 3.028C12.997 1.209 14.968 0.422005 16.25 1.162C17.532 1.902 17.835 4.002 17.259 6.642C19.833 7.461 21.5 8.775 21.5 10.255C21.5 11.735 19.833 13.048 17.259 13.869H17.258ZM9.938 4.09C9.68369 3.85981 9.41909 3.64125 9.145 3.435C7.868 2.48 6.903 2.228 6.5 2.461C6.097 2.693 5.833 3.655 6.021 5.238C6.061 5.565 6.117 5.904 6.191 6.254C6.94553 6.08874 7.70872 5.96588 8.477 5.886C8.952 5.233 9.442 4.632 9.939 4.09H9.938ZM13.523 5.886C14.325 5.97 15.091 6.095 15.808 6.254C15.883 5.904 15.94 5.564 15.978 5.238C16.168 3.655 15.903 2.693 15.5 2.461C15.097 2.228 14.132 2.48 12.855 3.435C12.5806 3.64123 12.3156 3.85979 12.061 4.09C12.558 4.632 13.048 5.233 13.523 5.886ZM11.528 5.761C11.353 5.551 11.177 5.347 11 5.152C10.823 5.347 10.647 5.55 10.472 5.761C10.824 5.75353 11.176 5.75353 11.528 5.761ZM7.372 12.959C7.18956 12.6581 7.01352 12.3534 6.844 12.045C6.749 12.302 6.661 12.555 6.581 12.806C6.838 12.862 7.102 12.913 7.371 12.959H7.372ZM9.304 13.193C10.4331 13.2769 11.5669 13.2769 12.696 13.193C13.3332 12.257 13.9001 11.2749 14.392 10.255C13.9001 9.23508 13.3332 8.25305 12.696 7.317C11.5669 7.23314 10.4331 7.23314 9.304 7.317C8.6668 8.25305 8.09991 9.23508 7.608 10.255C8.09991 11.2749 8.6668 12.257 9.304 13.193ZM15.156 8.465C15.251 8.208 15.339 7.955 15.419 7.704C15.1568 7.64712 14.8934 7.5961 14.629 7.551C14.8111 7.85191 14.9868 8.15665 15.156 8.465ZM5.13 8.092C4.79 8.202 4.468 8.322 4.166 8.452C2.701 9.08 2 9.79 2 10.255C2 10.72 2.7 11.43 4.166 12.058C4.468 12.188 4.79 12.308 5.13 12.418C5.352 11.718 5.627 10.992 5.955 10.255C5.63982 9.54998 5.36439 8.82784 5.13 8.092ZM6.58 7.704C6.661 7.954 6.749 8.208 6.844 8.464C7.01353 8.15597 7.18957 7.85157 7.372 7.551C7.102 7.597 6.838 7.648 6.581 7.704H6.58ZM16.87 12.418C17.21 12.308 17.532 12.188 17.834 12.058C19.299 11.43 20 10.72 20 10.255C20 9.79 19.3 9.08 17.834 8.452C17.5183 8.3175 17.1966 8.19738 16.87 8.092C16.648 8.792 16.373 9.51801 16.045 10.255C16.373 10.992 16.648 11.717 16.87 12.418ZM15.42 12.806C15.339 12.556 15.251 12.302 15.156 12.046C14.9865 12.354 14.8104 12.6584 14.628 12.959C14.898 12.913 15.162 12.862 15.419 12.806H15.42Z" fill="#607B96"/>
</svg>
